# xmcd
#
# Track frame offsets:
#	150
#	23881
#	47055
#	65793
#	84029
#	105617
#	125941
#	150540
#	168139
#	186163
#	202849
#	221208
#	239972
#	254534
#	273245
#	297304
#	313681
#	333199
#
# Disc length: 4610 seconds
#
# Revision: 0
# Processed by: cddbd v1.5.2PL0 Copyright (c) Steve Scherf et al.
# Submitted via: dBpowerAMP V4.0
#
DISCID=0e120012
DTITLE=r.e.m. - the best 
DYEAR=2005
DGENRE=Country
TTITLE0=man of the moon
TTITLE1=the great beyond
TTITLE2=bad day
TTITLE3=what's the frequency
TTITLE4=all the way to reno
TTITLE5=losing my religion
TTITLE6=ebow the letter
TTITLE7=orange crush
TTITLE8=imitation of life
TTITLE9=day slepper
TTITLE10=animal
TTITLE11=the sidewinder sleeps tonight
TTITLE12=stand
TTITLE13=electrolite
TTITLE14=all the right friend
TTITLE15=everybody hurts
TTITLE16=at my most beautiful
TTITLE17=night swimming
EXTD=
EXTT0=
EXTT1=
EXTT2=
EXTT3=
EXTT4=
EXTT5=
EXTT6=
EXTT7=
EXTT8=
EXTT9=
EXTT10=
EXTT11=
EXTT12=
EXTT13=
EXTT14=
EXTT15=
EXTT16=
EXTT17=
PLAYORDER=
